<svg id="Layer_1" xmlns="http://www.w3.org/2000/svg" viewBox="0 0 143 40"><style>.st0{fill:#ff3514}.st1{fill:#fff}.st2{fill:#202b5d}.st3{font-family:&apos;GothicA1-Regular&apos;}.st4{font-size:32px}</style><path class="st0" d="M25 40H15C6.8 40 0 33.3 0 25V15C0 6.8 6.8 0 15 0h10c8.3 0 15 6.8 15 15v10c0 8.3-6.7 15-15 15z"/><path class="st1" d="M12.4 15.3h16.4c.4 0 .7-.3.7-.7 0-.4-.3-.7-.7-.7-.3-3.8-3.1-6.8-6.8-7.4v-1h-1.2V3.2c0-.1-.1-.2-.2-.2s-.2.1-.2.2v2.4h-1.2v1c-3.7.6-6.5 3.7-6.8 7.4-.4 0-.7.3-.7.7 0 .3.3.6.7.6zm19.9 17.2h-.9v-7.9h.9c.5 0 .9-.4.9-.9s-.4-.9-.9-.9H9c-.5 0-.9.4-.9.9s.4.9.9.9h.9v7.9H9c-.5 0-.9.4-.9.9s.4.9.9.9h23.3c.5 0 .9-.4.9-.9-.1-.5-.5-.9-.9-.9zm-3.3 0h-1.4v-7.9H29v7.9zm-9.1-7.8h1.4v7.9h-1.4v-7.9zm-2.4 7.8h-1.4v-7.9h1.4v7.9zm6.2-7.8h1.4v7.9h-1.4v-7.9zm-11.5 0h1.4v7.9h-1.4v-7.9zm-.8-6.4h.9V22H14v-3.7h.8V22h1.7v-3.7h.8V22H19v-3.7h.8V22h1.7v-3.7h.8V22H24v-3.7h.8V22h1.7v-3.7h.8V22H29v-3.7h.9c.5 0 .9-.4.9-.9s-.4-.9-.9-.9H11.4c-.5 0-.9.4-.9.9s.4.9.9.9z"/><text transform="translate(47 30)" class="st2 st3 st4">EGovt</text></svg>